<svg width="31" height="30" viewBox="0 0 31 30" fill="none" xmlns="http://www.w3.org/2000/svg">
<path d="M30.6418 15C30.6418 23.2843 23.9261 30 15.6418 30C7.35757 30 0.641846 23.2843 0.641846 15C0.641846 6.71573 7.35757 0 15.6418 0C23.9261 0 30.6418 6.71573 30.6418 15Z" fill="white"/>
<path d="M15.6418 30C11.6636 30 7.84829 28.4196 5.03524 25.6066C2.2222 22.7936 0.641846 18.9782 0.641846 15C0.641845 11.0218 2.2222 7.20645 5.03524 4.3934C7.84829 1.58035 11.6636 6.00699e-07 15.6418 0V30Z" fill="#030B12"/>
<path d="M5.36151 4.77431C5.37968 4.75605 5.39789 4.73783 5.41616 4.71967C8.01443 2.13519 11.4906 0.634475 15.1418 0.508614V29.4914C11.4777 29.3651 7.99 27.8542 5.3888 25.253C2.66952 22.5338 1.14185 18.8456 1.14185 15C1.14185 11.1672 2.6593 7.49094 5.36151 4.77431ZM16.1418 29.4915V0.508459C23.9185 0.77198 30.1418 7.15922 30.1418 15C30.1418 22.8408 23.9185 29.228 16.1418 29.4915Z" stroke="#030B12"/>
</svg>
