<svg width="30" height="30" viewBox="0 0 30 30" fill="none" xmlns="http://www.w3.org/2000/svg">
<path d="M30 15C30 23.2843 23.2843 30 15 30C6.71573 30 0 23.2843 0 15C0 6.71573 6.71573 0 15 0C23.2843 0 30 6.71573 30 15Z" fill="white"/>
<path d="M15 0C18.9782 0 22.7936 1.58035 25.6066 4.3934C28.4196 7.20644 30 11.0218 30 15C30 18.9782 28.4196 22.7936 25.6066 25.6066C22.7936 28.4196 18.9782 30 15 30V0Z" fill="#030B12"/>
<path d="M15.5 0.508614C19.1548 0.634594 22.634 2.13805 25.2331 4.72706C25.2464 4.74031 25.2597 4.75358 25.2729 4.76688C27.9798 7.48424 29.5 11.1637 29.5 15C29.5 18.8456 27.9723 22.5338 25.253 25.253C22.6518 27.8542 19.1641 29.3651 15.5 29.4914V0.508614ZM14.5 0.508459V29.4915C6.72339 29.228 0.5 22.8408 0.5 15C0.5 7.15922 6.72339 0.77198 14.5 0.508459Z" stroke="#030B12"/>
</svg>
