<svg width="31" height="31" viewBox="0 0 31 31" fill="none" xmlns="http://www.w3.org/2000/svg">
<path d="M30.6418 15C30.6418 23.2843 23.9261 30 15.6418 30C7.35756 30 0.641837 23.2843 0.641837 15C0.641837 6.71573 7.35756 0 15.6418 0C23.9261 0 30.6418 6.71573 30.6418 15Z" fill="#030B12"/>
<path d="M17.6438 0.29996C11.9735 1.8273 7.8267 7.98261 8.00213 15.2374C8.17757 22.4921 12.6171 28.4398 18.3546 29.6913C17.3903 29.9114 16.3898 30.0389 15.3627 30.0638C7.08086 30.264 0.204745 23.7126 0.004472 15.4308C-0.195801 7.14891 6.35561 0.272792 14.6375 0.072519C15.6646 0.0476815 16.67 0.126688 17.6438 0.29996Z" fill="white"/>
<path d="M17.7739 0.782753L17.7683 0.654823C24.7684 1.68355 30.1418 7.71425 30.1418 15C30.1418 22.0434 25.1199 27.9139 18.4613 29.2261L18.4611 29.2027C12.9988 28.0113 8.67319 22.3048 8.50199 15.2253C8.33079 8.14572 12.3755 2.23685 17.7739 0.782753ZM15.4899 0.57597C10.6325 2.93938 7.34376 8.69424 7.50228 15.2494C7.66012 21.7765 11.1932 27.3458 16.1259 29.4921C15.9652 29.4973 15.8038 29.5 15.6418 29.5C7.63371 29.5 1.14184 23.0081 1.14184 15C1.14184 7.62797 6.64335 1.54089 13.7647 0.620386C14.0572 0.595654 14.3522 0.579563 14.6495 0.572373C14.9315 0.565556 15.2117 0.566826 15.4899 0.57597Z" stroke="#030B12"/>
</svg>
