<svg width="30" height="30" viewBox="0 0 30 30" fill="none" xmlns="http://www.w3.org/2000/svg">
<path d="M30 15C30 23.2843 23.2843 30 15 30C6.71573 30 0 23.2843 0 15C0 6.71573 6.71573 0 15 0C23.2843 0 30 6.71573 30 15Z" fill="white"/>
<path d="M12 29.6999C17.7056 28.3101 22 22.2569 22 15C22 7.74313 17.7056 1.68987 12 0.300054C12.9693 0.103291 13.9726 0 15 0C23.2843 0 30 6.71573 30 15C30 23.2843 23.2843 30 15 30C13.9726 30 12.9693 29.8967 12 29.6999Z" fill="#030B12"/>
<path d="M29.5 15C29.5 23.0081 23.0081 29.5 15 29.5C14.7497 29.5 14.501 29.4937 14.2538 29.4811C14.2225 29.4795 14.1913 29.4779 14.16 29.4761C19.0732 27.2308 22.5 21.5571 22.5 15C22.5 8.44288 19.0732 2.76922 14.16 0.523925C14.2452 0.519057 14.3306 0.514925 14.4163 0.511536C14.6099 0.503869 14.8045 0.5 15 0.5C23.0081 0.5 29.5 6.99187 29.5 15ZM21.5 15C21.5 22.0345 17.3692 27.8136 11.9899 29.1871C5.42633 27.8014 0.5 21.976 0.5 15C0.5 8.02398 5.42633 2.19856 11.9899 0.81285C17.3692 2.18635 21.5 7.96548 21.5 15Z" stroke="#030B12"/>
</svg>
