<svg width="31" height="30" viewBox="0 0 31 30" fill="none" xmlns="http://www.w3.org/2000/svg">
<path d="M30.6418 15C30.6418 23.2843 23.9261 30 15.6418 30C7.35757 30 0.641846 23.2843 0.641846 15C0.641846 6.71573 7.35757 0 15.6418 0C23.9261 0 30.6418 6.71573 30.6418 15Z" fill="#030B12"/>
<path d="M12.6418 29.6999C18.3474 28.3101 22.6418 22.2569 22.6418 15C22.6418 7.74313 18.3474 1.68987 12.6418 0.300054C13.6112 0.103291 14.6144 0 15.6418 0C23.9261 0 30.6418 6.71573 30.6418 15C30.6418 23.2843 23.9261 30 15.6418 30C14.6144 30 13.6112 29.8967 12.6418 29.6999Z" fill="white"/>
<path d="M30.1418 15C30.1418 23.0081 23.65 29.5 15.6418 29.5C15.3916 29.5 15.1428 29.4937 14.8957 29.4811C14.8644 29.4795 14.8331 29.4779 14.8019 29.4761C19.715 27.2308 23.1418 21.5571 23.1418 15C23.1418 8.44288 19.715 2.76922 14.8019 0.523925C14.8871 0.519057 14.9725 0.514925 15.0581 0.511536C15.2517 0.503869 15.4463 0.5 15.6418 0.5C23.65 0.5 30.1418 6.99187 30.1418 15ZM22.1418 15C22.1418 22.0345 18.011 27.8136 12.6317 29.1871C6.06818 27.8014 1.14185 21.976 1.14185 15C1.14185 8.02398 6.06818 2.19856 12.6317 0.81285C18.011 2.18635 22.1418 7.96548 22.1418 15Z" stroke="#030B12"/>
</svg>
