<svg width="32" height="31" viewBox="0 0 32 31" fill="none" xmlns="http://www.w3.org/2000/svg">
<path d="M31.2837 15C31.2837 23.2843 24.568 30 16.2837 30C7.99941 30 1.28368 23.2843 1.28368 15C1.28368 6.71573 7.99941 0 16.2837 0C24.568 0 31.2837 6.71573 31.2837 15Z" fill="white"/>
<path d="M18.2857 0.29996C12.6154 1.8273 8.46854 7.98261 8.64398 15.2374C8.81942 22.4921 13.2589 28.4398 18.9964 29.6913C18.0321 29.9114 17.0317 30.0389 16.0046 30.0638C7.72271 30.264 0.846591 23.7126 0.646318 15.4308C0.446045 7.14891 6.99746 0.272792 15.2793 0.072519C16.3064 0.0476815 17.3119 0.126688 18.2857 0.29996Z" fill="#030B12"/>
<path d="M18.4157 0.782753L18.4102 0.654823C25.4102 1.68355 30.7837 7.71425 30.7837 15C30.7837 22.0434 25.7617 27.9139 19.1031 29.2261L19.103 29.2027C13.6406 28.0113 9.31503 22.3048 9.14383 15.2253C8.97264 8.14572 13.0173 2.23685 18.4157 0.782753ZM16.1317 0.57597C11.2743 2.93938 7.98561 8.69424 8.14413 15.2494C8.30196 21.7765 11.8351 27.3458 16.7677 29.4921C16.607 29.4973 16.4457 29.5 16.2837 29.5C8.27555 29.5 1.78368 23.0081 1.78368 15C1.78368 7.62797 7.28519 1.54089 14.4066 0.620386C14.699 0.595654 14.9941 0.579563 15.2914 0.572373C15.5733 0.565556 15.8535 0.566826 16.1317 0.57597Z" stroke="#030B12"/>
</svg>
