<svg version="1.2" xmlns="http://www.w3.org/2000/svg" viewBox="0 0 188 216" width="188" height="216"><style>.a{fill:#00b4ef}.b{fill:#fdbf23}</style><path class="a" d="m97.3 215.8c-51.6 0-93.5-41.9-93.5-93.5 0-41.5 27.8-78.5 67.7-89.9 1.7-0.5 3.5 0 4.8 1.2 1.3 1.3 1.7 3.1 1.2 4.9-2.1 7.6-3.3 15.4-3.3 23.1 0 46.2 37.6 83.7 83.8 83.7 7.7 0 15.5-1.1 23.1-3.3 1.7-0.4 3.6 0 4.8 1.3 1.3 1.2 1.8 3.1 1.3 4.8-11.5 39.9-48.4 67.7-89.9 67.7z"/><path class="b" d="m125.3 29.3c-1.2 4.2-3 4.2-4.1 0-1.2-4.2-5.5-8.5-9.7-9.6-4.1-1.2-4.1-3 0-4.2 4.2-1.1 8.5-5.4 9.7-9.6 1.1-4.2 2.9-4.2 4.1 0 1.1 4.2 5.4 8.5 9.6 9.6 4.2 1.2 4.2 3 0 4.2-4.2 1.1-8.5 5.4-9.6 9.6z"/><path class="b" d="m159 93.6c-1.8 6.4-4.6 6.4-6.3 0-1.7-6.3-8.3-12.8-14.6-14.5-6.3-1.8-6.3-4.6 0-6.3 6.3-1.7 12.9-8.3 14.6-14.6 1.7-6.3 4.5-6.3 6.3 0 1.7 6.3 8.2 12.9 14.6 14.6 6.3 1.7 6.3 4.5 0 6.3-6.4 1.7-12.9 8.2-14.6 14.5z"/></svg>