<svg version="1.2" xmlns="http://www.w3.org/2000/svg" viewBox="0 0 272 280" width="272" height="280"><style>.a{fill:#d4ebf9}.b{fill:#00b4ef}.c{fill:#fefefe}</style><path class="a" d="m63.1 250.8c-10.8 0-19.5-8.8-19.5-19.7 0-10.9 8.7-19.7 19.5-19.7 10.8 0 19.6 8.8 19.6 19.7 0 10.9-8.8 19.7-19.6 19.7zm112.9 0c-10.8 0-19.5-8.8-19.5-19.7 0-10.9 8.7-19.7 19.5-19.7 10.8 0 19.5 8.8 19.5 19.7 0 10.9-8.7 19.7-19.5 19.7zm-54.5 28.5c-10.8 0-19.5-8.8-19.5-19.7 0-10.9 8.7-19.7 19.5-19.7 10.8 0 19.6 8.8 19.6 19.7 0 10.9-8.8 19.7-19.6 19.7z"/><path class="b" d="m214.7 115.8c-32.5 0-59-26.5-59-59 0-26.1 17.6-49.4 42.7-56.6 1.1-0.3 2.3 0 3.1 0.8 0.8 0.8 1.1 1.9 0.7 3-1.3 4.8-2 9.7-2 14.6 0 29.1 23.6 52.8 52.8 52.8 4.8 0 9.7-0.7 14.5-2.1 1.1-0.3 2.3 0 3.1 0.8 0.8 0.8 1.1 1.9 0.8 3-7.3 25.1-30.6 42.7-56.7 42.7z"/><path class="a" d="m185 179.8c23.7 0 42.9-18.9 42.9-42.1 0-23.3-19.2-42.2-42.9-42.2q-0.2 0-0.5 0c-3.8-33.6-32.8-59.8-68-59.8-27.8 0-51.8 16.3-62.5 39.8q-0.5-0.1-1-0.1c-29.3 0-53.1 23.4-53.1 52.2 0 28.9 23.8 52.2 53.1 52.2"/><path class="c" d="m240.7 180c15 0 27.1-12.1 27.1-26.9 0-14.9-12.1-27-27.1-27q-0.1 0-0.3 0.1c-2.4-21.5-20.7-38.2-42.9-38.2-17.6 0-32.7 10.4-39.4 25.4q-0.4 0-0.7-0.1c-18.5 0-33.5 15-33.5 33.4 0 18.4 15 33.3 33.5 33.3"/></svg>