<svg version="1.2" xmlns="http://www.w3.org/2000/svg" viewBox="0 0 268 244" width="268" height="244"><style>.a{fill:#00b4ef}.b{fill:#d4ebf9}.c{fill:#fefefe}</style><path class="a" d="m206.7 115.8c-32.5 0-59-26.5-59-59 0-26.1 17.6-49.4 42.7-56.6 1.1-0.3 2.3 0 3.1 0.8 0.8 0.8 1.1 1.9 0.7 3-1.3 4.8-2 9.7-2 14.6 0 29.1 23.6 52.8 52.8 52.8 4.8 0 9.7-0.7 14.5-2.1 1.1-0.3 2.3 0 3.1 0.8 0.8 0.8 1.1 1.9 0.8 3-7.3 25.1-30.6 42.7-56.7 42.7z"/><path class="b" d="m185 175.8c23.7 0 42.9-18.9 42.9-42.1 0-23.3-19.2-42.2-42.9-42.2q-0.2 0-0.5 0c-3.8-33.6-32.8-59.8-68-59.8-27.8 0-51.8 16.3-62.5 39.8q-0.5-0.1-1-0.1c-29.3 0-53.1 23.4-53.1 52.2 0 28.9 23.8 52.2 53.1 52.2"/><path class="c" d="m240.7 176c15 0 27.1-12.1 27.1-26.9 0-14.9-12.1-27-27.1-27q-0.1 0-0.3 0.1c-2.4-21.5-20.7-38.2-42.9-38.2-17.6 0-32.7 10.4-39.4 25.4q-0.4 0-0.7-0.1c-18.5 0-33.5 15-33.5 33.4 0 18.4 15 33.3 33.5 33.3"/><path class="a" d="m45 242.9c-1.4 0-2.8-0.4-4.1-1.1-3.8-2.1-5.1-6.9-2.9-10.6l11.6-19.5c2.3-3.7 7.2-5 11.1-2.9 3.8 2.2 5.1 7 2.9 10.7l-11.6 19.5c-1.5 2.5-4.2 3.9-7 3.9zm54.9 0c-1.4 0-2.8-0.4-4-1.1-3.9-2.1-5.2-6.9-3-10.6l11.7-19.5c2.2-3.7 7.1-5 11-2.9 3.8 2.2 5.2 7 2.9 10.7l-11.6 19.5c-1.5 2.5-4.2 3.9-7 3.9zm58.9 0c-1.3 0-2.7-0.4-4-1.1-3.9-2.1-5.2-6.9-2.9-10.6l11.6-19.5c2.2-3.7 7.1-5 11-2.9 3.9 2.2 5.2 7 3 10.7l-11.7 19.5c-1.5 2.5-4.2 3.9-7 3.9z"/></svg>