<svg version="1.2" xmlns="http://www.w3.org/2000/svg" viewBox="0 0 47 54" width="47" height="54"><style>.a{fill:#00b4ef}.b{fill:#fdbf23}</style><path class="a" d="m24.3 54c-12.9 0-23.4-10.5-23.4-23.4 0-10.4 7-19.6 17-22.5 0.4-0.1 0.9 0 1.2 0.3 0.3 0.3 0.4 0.8 0.3 1.2q-0.8 2.9-0.8 5.8c0 11.5 9.4 20.9 20.9 20.9q2.9 0 5.8-0.8c0.4-0.1 0.9 0 1.2 0.3 0.3 0.3 0.4 0.8 0.3 1.2-2.9 10-12.1 17-22.5 17z"/><path class="b" d="m31.3 7.3c-0.3 1.1-0.7 1.1-1 0-0.3-1-1.4-2.1-2.4-2.4-1.1-0.3-1.1-0.7 0-1 1-0.3 2.1-1.4 2.4-2.4 0.3-1.1 0.7-1.1 1 0 0.3 1 1.4 2.1 2.4 2.4 1.1 0.3 1.1 0.7 0 1-1 0.3-2.1 1.4-2.4 2.4z"/><path class="b" d="m39.7 23.4c-0.4 1.6-1.1 1.6-1.5 0-0.4-1.6-2.1-3.2-3.7-3.6-1.5-0.5-1.5-1.2 0-1.6 1.6-0.4 3.3-2.1 3.7-3.6 0.4-1.6 1.1-1.6 1.5 0 0.5 1.5 2.1 3.2 3.7 3.6 1.6 0.4 1.6 1.1 0 1.6-1.6 0.4-3.2 2-3.7 3.6z"/></svg>