<svg version="1.2" xmlns="http://www.w3.org/2000/svg" viewBox="0 0 67 54" width="67" height="54"><style>.a{fill:#fefefe}.b{fill:#d9ecf9}.c{fill:#00b4ef}</style><path class="a" d="m46.2 36c6 0 10.8-4.8 10.8-10.6 0-5.8-4.8-10.5-10.8-10.5q0 0-0.1 0c-0.9-8.4-8.2-15-17-15-6.9 0-12.9 4.1-15.6 10q-0.1 0-0.2 0c-7.4 0-13.3 5.8-13.3 13 0 7.2 5.9 13.1 13.3 13.1"/><path class="b" d="m60.2 36c3.7 0 6.8-3 6.8-6.7 0-3.8-3.1-6.8-6.8-6.8q-0.1 0-0.1 0c-0.6-5.3-5.2-9.5-10.7-9.5-4.4 0-8.2 2.6-9.9 6.3q-0.1 0-0.1 0c-4.7 0-8.4 3.8-8.4 8.4 0 4.6 3.7 8.3 8.4 8.3"/><path class="c" d="m20.5 46h-10.1c-0.8 0-1.5-0.7-1.5-1.5 0-0.8 0.7-1.5 1.5-1.5h10.1c0.9 0 1.6 0.7 1.6 1.5 0 0.8-0.7 1.5-1.6 1.5zm21.8 0h-15.2c-0.8 0-1.5-0.7-1.5-1.5 0-0.8 0.7-1.5 1.5-1.5h15.2c0.8 0 1.5 0.7 1.5 1.5 0 0.8-0.7 1.5-1.5 1.5zm-11.7 8h-20.2c-0.8 0-1.5-0.7-1.5-1.5 0-0.8 0.7-1.5 1.5-1.5h20.2c0.9 0 1.6 0.7 1.6 1.5 0 0.8-0.7 1.5-1.6 1.5zm21.8 0h-15.2c-0.8 0-1.5-0.7-1.5-1.5 0-0.8 0.7-1.5 1.5-1.5h15.2c0.8 0 1.5 0.7 1.5 1.5 0 0.8-0.7 1.5-1.5 1.5z"/></svg>