<svg version="1.2" xmlns="http://www.w3.org/2000/svg" viewBox="0 0 67 61" width="67" height="61"><style>.a{fill:#00b4ef}.b{fill:#d4ebf9}.c{fill:#fefefe}</style><path class="a" d="m51.7 28.9c-8.2 0-14.8-6.6-14.8-14.7 0-6.5 4.4-12.4 10.7-14.2 0.3 0 0.6 0 0.8 0.2 0.2 0.2 0.2 0.5 0.2 0.8q-0.6 1.8-0.6 3.6c0 7.3 6 13.2 13.2 13.2q1.9 0 3.7-0.5c0.3-0.1 0.5 0 0.7 0.2 0.2 0.2 0.3 0.5 0.2 0.8-1.8 6.3-7.6 10.6-14.1 10.6z"/><path class="b" d="m46.2 44c6 0 10.8-4.8 10.8-10.6 0-5.8-4.8-10.5-10.8-10.5q0 0-0.1 0c-0.9-8.4-8.2-15-17-15-6.9 0-12.9 4.1-15.6 10q-0.1 0-0.2 0c-7.4 0-13.3 5.8-13.3 13 0 7.2 5.9 13.1 13.3 13.1"/><path class="c" d="m60.2 44c3.7 0 6.8-3 6.8-6.7 0-3.8-3.1-6.8-6.8-6.8q-0.1 0-0.1 0c-0.6-5.3-5.2-9.5-10.7-9.5-4.4 0-8.2 2.6-9.9 6.3q-0.1 0-0.1 0c-4.7 0-8.4 3.8-8.4 8.4 0 4.6 3.7 8.3 8.4 8.3"/><path class="a" d="m11.2 60.7q-0.5 0-1-0.2c-0.9-0.6-1.3-1.8-0.7-2.7l2.9-4.9c0.6-0.9 1.8-1.2 2.8-0.7 0.9 0.5 1.3 1.7 0.7 2.7l-2.9 4.8c-0.4 0.7-1.1 1-1.8 1zm13.8 0q-0.5 0-1-0.2c-1-0.6-1.3-1.8-0.8-2.7l2.9-4.9c0.6-0.9 1.8-1.2 2.8-0.7 1 0.5 1.3 1.7 0.7 2.7l-2.9 4.8c-0.4 0.7-1 1-1.7 1zm14.7 0q-0.5 0-1-0.2c-1-0.6-1.3-1.8-0.7-2.7l2.9-4.9c0.5-0.9 1.8-1.2 2.7-0.7 1 0.5 1.3 1.7 0.8 2.7l-2.9 4.8c-0.4 0.7-1.1 1-1.8 1z"/></svg>