<svg version="1.2" xmlns="http://www.w3.org/2000/svg" viewBox="0 0 67 65" width="67" height="65"><style>.a{fill:#d4ebf9}.b{fill:#fefefe}.c{fill:#d9ecf9}</style><path class="a" d="m48.2 48.6c0 2.8-2.2 5-5 5-2.7 0-4.9-2.2-4.9-5 0-2.7 2.2-5 4.9-5 2.8 0 5 2.3 5 5z"/><path class="b" d="m46.2 36c6 0 10.8-4.8 10.8-10.6 0-5.8-4.8-10.5-10.8-10.5q0 0-0.1 0c-0.9-8.4-8.2-15-17-15-6.9 0-12.9 4.1-15.6 10q-0.1 0-0.2 0c-7.4 0-13.3 5.8-13.3 13 0 7.2 5.9 13.1 13.3 13.1"/><path class="c" d="m60.2 36c3.7 0 6.8-3 6.8-6.7 0-3.8-3.1-6.8-6.8-6.8q-0.1 0-0.1 0c-0.6-5.3-5.2-9.5-10.7-9.5-4.4 0-8.2 2.6-9.9 6.3q-0.1 0-0.1 0c-4.7 0-8.4 3.8-8.4 8.4 0 4.6 3.7 8.3 8.4 8.3"/><path class="a" d="m13 46.9c0 1.1-0.9 2-2 2-1.1 0-2-0.9-2-2 0-1.1 0.9-2 2-2 1.1 0 2 0.9 2 2zm10 0c0 1.1-0.9 2-2 2-1.1 0-2-0.9-2-2 0-1.1 0.9-2 2-2 1.1 0 2 0.9 2 2zm10 0c0 1.1-0.9 2-2 2-1.1 0-2-0.9-2-2 0-1.1 0.9-2 2-2 1.1 0 2 0.9 2 2zm-20 16.1c0 1.1-0.9 1.9-2 1.9-1.1 0-2-0.8-2-1.9 0-1.1 0.9-2 2-2 1.1 0 2 0.9 2 2zm10 0c0 1.1-0.9 1.9-2 1.9-1.1 0-2-0.8-2-1.9 0-1.1 0.9-2 2-2 1.1 0 2 0.9 2 2zm-5-7.9c0 1.1-0.9 1.9-2 1.9-1.1 0-2-0.8-2-1.9 0-1.1 0.9-2 2-2 1.1 0 2 0.9 2 2zm10 0c0 1.1-0.9 1.9-2 1.9-1.1 0-2-0.8-2-1.9 0-1.1 0.9-2 2-2 1.1 0 2 0.9 2 2z"/></svg>