<svg version="1.2" xmlns="http://www.w3.org/2000/svg" viewBox="0 0 67 64" width="67" height="64"><style>.a{fill:#fdbf23}.b{fill:#fefefe}.c{fill:#d9ecf9}</style><path class="a" d="m62 13c0 7.2-5.8 13-13 13-7.2 0-13-5.8-13-13 0-7.2 5.8-13 13-13 7.2 0 13 5.8 13 13z"/><path class="a" d="m27.6 37c-1.6 0-3.7 1.2-4.5 2.6l-5.3 9.2c-0.8 1.4-0.1 2.5 1.5 2.4l4.3-0.3c1.7-0.2 2.4 0.9 1.6 2.4l-4.8 8.9c-0.8 1.4-0.4 1.8 0.9 0.7l17.4-14.3c1.3-1.1 1-1.9-0.7-1.8l-6.6 0.3c-1.7 0.1-2.4-1-1.6-2.4l3-5.1c0.8-1.4 0.1-2.6-1.5-2.6z"/><path class="b" d="m46.2 41c6 0 10.8-4.8 10.8-10.6 0-5.8-4.8-10.5-10.8-10.5q0 0-0.1 0c-0.9-8.4-8.2-15-17-15-6.9 0-12.9 4.1-15.6 10q-0.1 0-0.2 0c-7.4 0-13.3 5.8-13.3 13 0 7.2 5.9 13.1 13.3 13.1"/><path class="c" d="m60.2 41c3.7 0 6.8-3 6.8-6.7 0-3.8-3.1-6.8-6.8-6.8q-0.1 0-0.1 0c-0.6-5.3-5.2-9.5-10.7-9.5-4.4 0-8.2 2.6-9.9 6.3q-0.1 0-0.1 0c-4.7 0-8.4 3.8-8.4 8.4 0 4.6 3.7 8.3 8.4 8.3"/></svg>