<svg version="1.2" xmlns="http://www.w3.org/2000/svg" viewBox="0 0 268 260" width="268" height="260"><style>.a{fill:#d4ebf9}.b{fill:#fefefe}.c{fill:#d9ecf9}</style><path fill-rule="evenodd" class="a" d="m172.9 214.3c-11 0-19.9-8.8-19.9-19.8 0-11 8.9-19.9 19.9-19.9 11 0 19.9 8.9 19.9 19.9 0 11-8.9 19.8-19.9 19.8z"/><path class="b" d="m185 143.8c23.7 0 42.9-18.9 42.9-42.1 0-23.3-19.2-42.2-42.9-42.2q-0.2 0-0.5 0c-3.8-33.6-32.8-59.8-68-59.8-27.8 0-51.8 16.3-62.5 39.8q-0.5-0.1-1-0.1c-29.3 0-53.1 23.4-53.1 52.2 0 28.9 23.8 52.2 53.1 52.2"/><path class="c" d="m240.7 144c15 0 27.1-12.1 27.1-26.9 0-14.9-12.1-27-27.1-27q-0.1 0-0.3 0.1c-2.4-21.5-20.7-38.2-42.9-38.2-17.6 0-32.7 10.4-39.4 25.4q-0.4 0-0.7-0.1c-18.5 0-33.5 15-33.5 33.4 0 18.4 15 33.3 33.5 33.3"/><path class="a" d="m44 195.5c-4.4 0-8-3.6-8-7.9 0-4.4 3.6-7.9 8-7.9 4.4 0 8 3.5 8 7.9 0 4.3-3.6 7.9-8 7.9zm40 0c-4.4 0-8-3.6-8-7.9 0-4.4 3.6-7.9 8-7.9 4.4 0 8 3.5 8 7.9 0 4.3-3.6 7.9-8 7.9zm40 0c-4.4 0-8-3.6-8-7.9 0-4.4 3.6-7.9 8-7.9 4.4 0 8 3.5 8 7.9 0 4.3-3.6 7.9-8 7.9zm-80 64.3c-4.4 0-8-3.6-8-7.9 0-4.4 3.6-7.9 8-7.9 4.4 0 8 3.5 8 7.9 0 4.3-3.6 7.9-8 7.9zm40 0c-4.4 0-8-3.6-8-7.9 0-4.4 3.6-7.9 8-7.9 4.4 0 8 3.5 8 7.9 0 4.3-3.6 7.9-8 7.9zm-20-31.6c-4.4 0-8-3.6-8-7.9 0-4.4 3.6-7.9 8-7.9 4.4 0 8 3.5 8 7.9 0 4.3-3.6 7.9-8 7.9zm40 0c-4.4 0-8-3.6-8-7.9 0-4.4 3.6-7.9 8-7.9 4.4 0 8 3.5 8 7.9 0 4.3-3.6 7.9-8 7.9z"/></svg>