<svg version="1.2" xmlns="http://www.w3.org/2000/svg" viewBox="0 0 268 240" width="268" height="240"><style>.a{fill:#fdbf23}.b{fill:#fefefe}.c{fill:#d9ecf9}</style><path class="a" d="m110.5 131.9c-6.6 0-14.8 4.7-18.1 10.5l-21.2 36.7c-3.3 5.8-0.6 10.1 6 9.6l17.3-1.2c6.7-0.5 9.5 3.9 6.3 9.7l-19.2 35.5c-3.2 5.8-1.6 7.2 3.5 2.9l69.6-57.3c5.2-4.2 3.9-7.4-2.7-7.1l-26.6 1.4c-6.6 0.3-9.3-4.1-6-9.9l11.7-20.3c3.3-5.7 0.6-10.5-6-10.5z"/><path class="b" d="m185 143.8c23.7 0 42.9-18.9 42.9-42.1 0-23.3-19.2-42.2-42.9-42.2q-0.2 0-0.5 0c-3.8-33.6-32.8-59.8-68-59.8-27.8 0-51.8 16.3-62.5 39.8q-0.5-0.1-1-0.1c-29.3 0-53.1 23.4-53.1 52.2 0 28.9 23.8 52.2 53.1 52.2"/><path class="c" d="m240.7 144c15 0 27.1-12.1 27.1-26.9 0-14.9-12.1-27-27.1-27q-0.1 0-0.3 0.1c-2.4-21.5-20.7-38.2-42.9-38.2-17.6 0-32.7 10.4-39.4 25.4q-0.4 0-0.7-0.1c-18.5 0-33.5 15-33.5 33.4 0 18.4 15 33.3 33.5 33.3"/></svg>