<svg version="1.2" xmlns="http://www.w3.org/2000/svg" viewBox="0 0 268 260" width="268" height="260"><style>.a{fill:#fefefe}.b{fill:#d9ecf9}.c{fill:#00b4ef}</style><path class="a" d="m185 143.8c23.7 0 42.9-18.9 42.9-42.1 0-23.3-19.2-42.2-42.9-42.2q-0.2 0-0.5 0c-3.8-33.6-32.8-59.8-68-59.8-27.8 0-51.8 16.3-62.5 39.8q-0.5-0.1-1-0.1c-29.3 0-53.1 23.4-53.1 52.2 0 28.9 23.8 52.2 53.1 52.2"/><path class="b" d="m240.7 144c15 0 27.1-12.1 27.1-26.9 0-14.9-12.1-27-27.1-27q-0.1 0-0.3 0.1c-2.4-21.5-20.7-38.2-42.9-38.2-17.6 0-32.7 10.4-39.4 25.4q-0.4 0-0.7-0.1c-18.5 0-33.5 15-33.5 33.4 0 18.4 15 33.3 33.5 33.3"/><path class="c" d="m24.7 234.8c-1.3 0-2.7-0.4-4-1.1-3.9-2.2-5.2-7.2-3-11.1l26.3-45.8c2.3-3.9 7.2-5.2 11.1-3 3.9 2.3 5.2 7.3 3 11.2l-26.3 45.7c-1.5 2.6-4.3 4.1-7.1 4.1zm28.9 24.7c-1.3 0-2.7-0.4-4-1.1-3.9-2.3-5.2-7.3-3-11.1l40.5-70.5c2.3-3.9 7.2-5.2 11.1-3 3.9 2.3 5.2 7.3 3 11.2l-40.5 70.4c-1.5 2.6-4.3 4.1-7.1 4.1z"/><path class="b" d="m144 171.5c4.4 0 8 3.6 8 8.1 0 4.5-3.6 8.2-8 8.2-4.4 0-8-3.7-8-8.2 0-4.5 3.6-8.1 8-8.1m40 0c4.4 0 8 3.6 8 8.1 0 4.5-3.6 8.2-8 8.2-4.4 0-8-3.7-8-8.2 0-4.5 3.6-8.1 8-8.1m-76 83.9c-4.4 0-8-3.7-8-8.2 0-4.5 3.6-8.1 8-8.1 4.4 0 8 3.6 8 8.1 0 4.5-3.6 8.2-8 8.2zm12-42.8c0-4.5 3.6-8.1 8-8.1 4.4 0 8 3.6 8 8.1 0 4.5-3.6 8.2-8 8.2-4.4 0-8-3.7-8-8.2m48 8.2c-4.4 0-8-3.7-8-8.2 0-4.5 3.6-8.1 8-8.1 4.4 0 8 3.6 8 8.1 0 4.5-3.6 8.2-8 8.2z"/></svg>