<svg version="1.2" xmlns="http://www.w3.org/2000/svg" viewBox="0 0 260 136" width="260" height="136"><style>.a{fill:#00b4ef}</style><path class="a" d="m197.1 135.9c-11.3 0-20.4-9.1-20.4-20.4 0-2.7 0.5-5.3 1.5-7.7h-117c-3.5 0-6.4-2.9-6.4-6.4 0-3.4 2.9-6.3 6.4-6.3h135.4q0.1 0 0.3 0 0.1 0 0.2 0c11.3 0 20.5 9.1 20.5 20.4 0 11.3-9.2 20.4-20.5 20.4zm42.3-35c-11.3 0-20.4-9.1-20.4-20.4 0-2.7 0.6-5.3 1.5-7.7h-214.3c-3.5 0-6.4-2.8-6.4-6.3 0-3.5 2.9-6.4 6.4-6.4h232.7q0.2 0 0.3 0.1 0.1-0.1 0.2-0.1c11.3 0 20.5 9.2 20.5 20.4 0 11.3-9.2 20.4-20.5 20.4zm-42.3-101.1c-11.3 0-20.4 9.1-20.4 20.4 0 2.7 0.5 5.3 1.5 7.7h-74.7c-3.5 0-6.3 2.9-6.3 6.4 0 3.5 2.8 6.3 6.3 6.3h93.1q0.1 0 0.3 0 0.1 0 0.2 0c11.3 0 20.5-9.1 20.5-20.4 0-11.3-9.2-20.4-20.5-20.4z"/></svg>