<svg version="1.2" xmlns="http://www.w3.org/2000/svg" viewBox="0 0 256 164" width="256" height="164"><style>.a{fill:#fdbf23}.b{fill:#fefefe}</style><path fill-rule="evenodd" class="a" d="m86 164c-45.4 0-82-36.7-82-82 0-45.3 36.6-82 82-82 45.3 0 82 36.7 82 82 0 45.3-36.7 82-82 82z"/><path class="b" d="m122.1 83.2h-40.4c-3.3 0-6.1-2.7-6.1-6.1 0-3.4 2.8-6.2 6.1-6.2h40.4c3.4 0 6.1 2.8 6.1 6.2 0 3.4-2.7 6.1-6.1 6.1zm87 0h-60.7c-3.3 0-6-2.7-6-6.1 0-3.4 2.7-6.2 6-6.2h60.7c3.3 0 6 2.8 6 6.2 0 3.4-2.7 6.1-6 6.1zm-87 59.5h-40.4c-3.3 0-6.1-2.7-6.1-6.1 0-3.4 2.8-6.2 6.1-6.2h40.4c3.4 0 6.1 2.8 6.1 6.2 0 3.4-2.7 6.1-6.1 6.1zm87 0h-60.7c-3.3 0-6-2.7-6-6.1 0-3.4 2.7-6.2 6-6.2h60.7c3.3 0 6 2.8 6 6.2 0 3.4-2.7 6.1-6 6.1zm-46.5-28.7h-80.9c-3.3 0-6.1-2.8-6.1-6.2 0-3.4 2.8-6.1 6.1-6.1h80.9c3.3 0 6 2.7 6 6.1 0 3.4-2.7 6.2-6 6.2zm86.9 0h-60.7c-3.3 0-6-2.8-6-6.2 0-3.4 2.7-6.1 6-6.1h60.7c3.3 0 6.1 2.7 6.1 6.1 0 3.4-2.8 6.2-6.1 6.2z"/></svg>