<svg version="1.2" xmlns="http://www.w3.org/2000/svg" viewBox="0 0 284 156" width="284" height="156"><style>.a{fill:#d9ecf9}.b{fill:#fefefe}</style><path fill-rule="evenodd" class="a" d="m58 128c-29.9 0-54.1-24.2-54.1-54 0-29.9 24.2-54 54.1-54 29.8 0 54 24.1 54 54 0 29.8-24.2 54-54 54z"/><path fill-rule="evenodd" class="b" d="m133.8 155.8c-27.6 0-50-22.3-50-49.9 0-27.7 22.4-50 50-50 27.6 0 50 22.3 50 50 0 27.6-22.4 49.9-50 49.9z"/><path fill-rule="evenodd" class="b" d="m198 92c-23.2 0-42-18.8-42-42 0-23.2 18.8-42 42-42 23.2 0 42 18.8 42 42 0 23.2-18.8 42-42 42z"/><path fill-rule="evenodd" class="b" d="m247.2 115.4c-19.9 0-35.9-16.1-35.9-36 0-19.9 16-35.9 35.9-35.9 19.9 0 35.9 16 35.9 35.9 0 19.9-16 36-35.9 36z"/><path fill-rule="evenodd" class="a" d="m127.4 79.8c-22.1 0-40-17.9-40-40.1 0-22.1 17.9-40 40-40 22.2 0 40.1 17.9 40.1 40 0 22.2-17.9 40.1-40.1 40.1z"/><path fill-rule="evenodd" class="a" d="m207.3 127.6c-19.9 0-35.9-16.1-35.9-35.9 0-19.9 16-36 35.9-36 19.9 0 36 16.1 36 36 0 19.8-16.1 35.9-36 35.9z"/></svg>