<svg version="1.2" xmlns="http://www.w3.org/2000/svg" viewBox="0 0 172 168" width="172" height="168"><style>.a{fill:#d9ecf9}</style><path class="a" d="m164 15.4h-156c-4.4 0-8-3.5-8-7.9 0-4.4 3.6-7.9 8-7.9h156c4.4 0 8 3.5 8 7.9 0 4.4-3.6 7.9-8 7.9zm-20.4 7.9m-111.6-43.5m92 73.7h-84c-4.4 0-8-3.5-8-7.9 0-4.4 3.6-7.9 8-7.9h84c4.4 0 8 3.5 8 7.9 0 4.4-3.6 7.9-8 7.9zm12 38.1h-72c-4.4 0-8-3.5-8-7.9 0-4.4 3.6-7.9 8-7.9h72c4.4 0 8 3.5 8 7.9 0 4.4-3.6 7.9-8 7.9zm-24 38.1h-48c-4.4 0-8-3.5-8-7.9 0-4.4 3.6-7.9 8-7.9h48c4.4 0 8 3.5 8 7.9 0 4.4-3.6 7.9-8 7.9zm-38 38.1h-4c-4.4 0-8-3.5-8-7.9 0-4.3 3.6-7.9 8-7.9h4c4.4 0 8 3.6 8 7.9 0 4.4-3.6 7.9-8 7.9z"/></svg>